<?xml version="1.0" encoding="iso-8859-1"?>
<!-- Generator: Adobe Illustrator 19.0.0, SVG Export Plug-In . SVG Version: 6.00 Build 0)  -->
<svg version="1.1" id="Capa_1" xmlns="http://www.w3.org/2000/svg" xmlns:xlink="http://www.w3.org/1999/xlink" x="0px" y="0px"
	 viewBox="0 0 330.047 330.047" style="enable-background:new 0 0 330.047 330.047;" xml:space="preserve">
<g>
	<g>
		<g>
			<path d="M289.482,122.187c-12.057-17.05-31.058-29.147-56.475-35.956c-29.045-7.777-49.682,0.36-62.446,9.374
				c-0.155-5.094-0.79-11.638-2.464-19.329l15.175-14.452c6.784,3.448,20.768,9.341,37.137,9.339c9.784,0,20.424-2.107,30.88-8.1
				c34.394-19.713,34.362-43.507,34.343-44.51c-0.027-1.538-0.762-2.977-1.991-3.903c-1.397-1.052-34.636-25.572-71.113-8.801
				c-33.545,15.423-35.822,42.784-35.922,48.515l-11.44,10.896c-1.065-3.394-2.331-6.944-3.827-10.631
				c-11.801-29.071-19.91-34.122-22.848-34.944c-2.655-0.747-5.418,0.807-6.162,3.467c-0.693,2.476,0.606,5.04,2.935,5.981
				c0.673,0.44,6.994,5.076,16.81,29.258c6.614,16.294,8.263,29.635,8.479,37.982c-12.668-9.309-33.645-18.142-63.513-10.142
				c-25.417,6.809-44.417,18.906-56.474,35.956c-11.613,16.422-16.289,36.637-13.897,60.081
				c3.661,35.871,23.243,65.908,34.942,83.854c2.775,4.258,5.172,7.936,6.523,10.469c2.509,4.705,3.854,8.785,5.154,12.73
				c2.244,6.813,4.565,13.858,12.375,22.869c12.861,14.839,38.01,21.615,58.505,15.761c10.095-2.885,16.732-7.29,20.855-10.995
				c4.124,3.705,10.761,8.11,20.856,10.995c4.967,1.419,10.207,2.096,15.48,2.096c16.481,0,33.28-6.614,43.026-17.857
				c7.81-9.011,10.131-16.057,12.375-22.87c1.299-3.945,2.643-8.025,5.153-12.73c1.35-2.532,3.748-6.21,6.523-10.468
				c11.699-17.946,31.281-47.983,34.942-83.854C305.77,158.824,301.095,138.609,289.482,122.187z M216.703,14.935
				c26.027-11.965,51.119,1.463,58.646,6.187c-1.045,5.648-5.958,20.039-29.035,33.266c-24.498,14.043-51.409,2.204-59.569-2.054
				C187.474,45.383,191.776,26.395,216.703,14.935z M293.428,181.253c-3.414,33.458-22.166,62.222-33.37,79.409
				c-3.025,4.639-5.413,8.303-6.971,11.224c-2.914,5.464-4.462,10.162-5.827,14.307c-2.113,6.415-3.938,11.954-10.434,19.45
				c-10.31,11.895-31.479,17.471-48.2,12.694c-11.617-3.32-17.333-8.773-19.706-11.729c-0.949-1.181-2.382-1.869-3.898-1.869
				c-1.517,0-2.951,0.688-3.899,1.87c-2.371,2.956-8.085,8.408-19.703,11.728c-16.722,4.777-37.891-0.799-48.201-12.694
				c-6.496-7.495-8.321-13.035-10.434-19.449c-1.366-4.146-2.914-8.844-5.828-14.308c-1.558-2.921-3.947-6.585-6.971-11.224
				c-11.204-17.186-29.956-45.951-33.37-79.409c-4.386-42.987,17.991-73.302,63.01-85.361c32.492-8.706,52.662,5.25,61.817,14.381
				c0.357,0.367,0.773,0.682,1.237,0.927c0.556,0.295,1.156,0.478,1.765,0.548c0.702,0.081,1.387,0.014,2.027-0.181
				c0.673-0.203,1.311-0.552,1.867-1.045c0.09-0.08,0.179-0.164,0.263-0.25c9.154-9.132,29.324-23.086,61.816-14.38
				C275.438,107.95,297.815,138.266,293.428,181.253z"/>
			<path d="M79.338,117.638c-1.021,0.39-25.075,9.82-30.653,33.771c-0.626,2.69,1.047,5.377,3.736,6.004
				c0.381,0.089,0.763,0.131,1.138,0.131c2.272,0,4.328-1.558,4.866-3.868c4.354-18.698,24.289-26.621,24.49-26.699
				c2.571-0.989,3.859-3.874,2.877-6.449C84.808,117.947,81.913,116.655,79.338,117.638z"/>
		</g>
	</g>
</g>
<g>
</g>
<g>
</g>
<g>
</g>
<g>
</g>
<g>
</g>
<g>
</g>
<g>
</g>
<g>
</g>
<g>
</g>
<g>
</g>
<g>
</g>
<g>
</g>
<g>
</g>
<g>
</g>
<g>
</g>
</svg>
