<svg xmlns="http://www.w3.org/2000/svg" viewBox="0 0 512 512"><g id="outline"><path d="M230.075,220.1l-7.32-14.641A64.328,64.328,0,0,1,216,176.84v-15a8,8,0,0,0,8-8v-36a20.023,20.023,0,0,0-20-20H148a20.023,20.023,0,0,0-20,20v36a8,8,0,0,0,8,8v15a64.328,64.328,0,0,1-6.755,28.622l-7.32,14.641A94.3,94.3,0,0,0,112,262.14s.195,70.751.581,76.275c.4,5.491.984,10.982,1.75,16.317l2.01,14.061a226.084,226.084,0,0,1,1.487,50.733l-4.411,52.952A20,20,0,0,0,138.2,493.532l13.48-3.366,11.049,3.685a42.354,42.354,0,0,0,26.555,0l11.04-3.683L213.8,493.53a19.994,19.994,0,0,0,24.787-21.054l-4.41-52.951a226.08,226.08,0,0,1,1.488-50.733l2.009-14.056c.766-5.339,1.354-10.83,1.751-16.339s.58-76.257.58-76.257a94.316,94.316,0,0,0-9.925-42.037ZM128.147,329.84c-.1-2.657-.147-67.7-.147-67.7a77.617,77.617,0,0,1,.987-12.3h94.027a77.649,77.649,0,0,1,.986,12.3s-.051,65.045-.147,67.7ZM144,117.84a4,4,0,0,1,4-4h56a4,4,0,0,1,4,4v28H144Zm-7.765,109.418,7.32-14.64A80.4,80.4,0,0,0,152,176.84v-15h48v15a80.4,80.4,0,0,0,8.445,35.778l7.32,14.64q1.611,3.224,2.912,6.582H133.323Q134.628,230.489,136.235,227.258Zm85.006,249.923a3.912,3.912,0,0,1-3.563.827l-15.74-3.93a8,8,0,0,0-4.47.173l-13.241,4.417a26.234,26.234,0,0,1-16.445,0l-13.25-4.42a8,8,0,0,0-4.47-.173l-15.747,3.932a3.994,3.994,0,0,1-4.952-4.206l4.409-52.95a242.02,242.02,0,0,0-1.592-54.326l-2.011-14.064c-.313-2.183-.589-4.4-.837-6.624h93.336c-.248,2.228-.524,4.443-.837,6.628l-2.01,14.059c-.538,3.757-.965,7.531-1.325,11.313H208a8,8,0,1,0,0,16h9.492c-.151,5.33-.107,10.668.093,16H200a8,8,0,1,0,0,16h18.643l1.333,16H208a8,8,0,1,0,0,16h13.308l1.329,15.962A3.914,3.914,0,0,1,221.241,477.181Z"/><path d="M412.6,126.334l-11.968-17.1A91.482,91.482,0,0,1,384.311,64a8,8,0,0,0,7.987-8V32a16.018,16.018,0,0,0-16-16H328a16.019,16.019,0,0,0-16,16V56a7.993,7.993,0,0,0,7.691,7.984,91.487,91.487,0,0,1-16.321,45.252l-11.969,17.1A150.847,150.847,0,0,0,264,213.26V461.984a34,34,0,0,0,43.34,32.692l19.477-5.565a51.107,51.107,0,0,0,50.366,0l19.477,5.565a34.287,34.287,0,0,0,9.434,1.332A34.048,34.048,0,0,0,440,461.984V213.26A150.847,150.847,0,0,0,412.6,126.334ZM280,216H424V344H280ZM328,32h48.3V48H328ZM304.508,135.51l11.969-17.1A107.4,107.4,0,0,0,335.73,64h32.54a107.4,107.4,0,0,0,19.253,54.412l11.969,17.1A134.817,134.817,0,0,1,423.335,200H280.665A134.81,134.81,0,0,1,304.508,135.51ZM416.839,476.354a17.848,17.848,0,0,1-15.784,2.938L378.2,472.761a8,8,0,0,0-6.636,1.036,35.174,35.174,0,0,1-39.124,0,8,8,0,0,0-6.636-1.036l-22.857,6.531A18,18,0,0,1,280,461.984V360H424V461.984A17.852,17.852,0,0,1,416.839,476.354Z"/><path d="M400,232a8,8,0,0,0-8,8v16a8,8,0,0,0,16,0V240A8,8,0,0,0,400,232Z"/><path d="M400,280a8,8,0,0,0-8,8v32a8,8,0,0,0,16,0V288A8,8,0,0,0,400,280Z"/></g></svg>