<?xml version="1.0" encoding="iso-8859-1"?>
<!-- Generator: Adobe Illustrator 19.0.0, SVG Export Plug-In . SVG Version: 6.00 Build 0)  -->
<svg version="1.1" id="Capa_1" xmlns="http://www.w3.org/2000/svg" xmlns:xlink="http://www.w3.org/1999/xlink" x="0px" y="0px"
	 viewBox="0 0 512.002 512.002" style="enable-background:new 0 0 512.002 512.002;" xml:space="preserve">
<g>
	<g>
		<path d="M512.002,51.002H512c0-3.572-1.906-6.875-5-8.66c-3.094-1.787-6.906-1.787-10,0
			c-19.012,10.977-41.443,52.189-54.617,98.389c-17.193-27.824-40.41-51.477-68.193-69.272
			c-35.346-22.637-76.215-34.602-118.189-34.602c-33.449,0-66.984,7.824-96.98,22.627c-21.844,10.779-41.878,25.314-59.02,42.664
			V51.002c0-5.523-4.477-10-10-10s-10,4.477-10,10v70h-20v-70c0-5.523-4.478-10-10-10c-5.523,0-10,4.477-10,10v70H20v-70
			c0-5.523-4.477-10-10-10c-5.522,0-10,4.477-10,10v80c0,23.746,16.646,43.664,38.877,48.736
			c-1.862,17.877-5.103,56.172-9.683,114.465C25.377,342.781,20.001,414.236,20.001,421c0,16.541,13.458,29.998,30,29.998
			C66.542,450.998,80,437.541,80,421c0-2.926-0.997-17.853-2.436-37.777c40.579,56.935,106.685,91.922,178.438,91.922
			c49.375,0,97.841-16.934,136.474-47.684c16-12.734,30.063-27.652,41.844-44.17c-1.412,9.613-2.318,18.951-2.318,27.707
			c0,22.055,17.945,40,40.002,40c22.055,0,39.998-17.945,39.998-40.006l-0.062-118.895c0.039-0.359,0.062-0.725,0.062-1.096V51.002z
			 M21.72,141.002h56.56c-4.128,11.639-15.243,20-28.279,20C36.964,161.002,25.849,152.641,21.72,141.002z M50.001,430.998
			c-5.514,0-10-4.486-10-9.998c0-4.779,5-72.336,10.002-135.764C55.002,348.653,60,416.203,60,421
			C60,426.512,55.515,430.998,50.001,430.998z M450.067,300.691c-20.941,90.94-100.742,154.454-194.066,154.454
			c-78.669,0-149.873-46.279-181.87-118.037c-1.126-14.807-2.276-29.68-3.312-42.863c-4.58-58.311-7.822-96.619-9.69-114.506
			c21.824-4.982,38.247-24.273,38.839-47.445c37.518-47.287,95.586-75.436,156.033-75.436c76.4,0,146.502,44.221,179.511,112.93
			c-5.305,28.424-6.303,56.764-0.211,79.5c3.457,12.902,9.037,23.568,16.623,31.811
			C451.711,287.281,451.037,293.865,450.067,300.691z M472.003,430.998c-11.029,0-20.002-8.973-20.002-20
			c0-18.947,4.973-42.301,9.781-64.887c3.662-17.201,7.408-34.826,9.172-51.273c6.338,2.871,13.342,4.752,20.988,5.613
			l0.059,110.547C492.001,422.026,483.03,430.998,472.003,430.998z M492.001,280.296c-19.385-2.91-31.656-14.824-37.381-36.184
			c-7.129-26.607-3.109-67.697,10.754-109.916c8.16-24.856,17.888-44.782,26.627-57.953V280.296z"/>
	</g>
</g>
<g>
	<g>
		<path d="M226.398,177.903c-22.747,0-41.252,18.504-41.252,41.25c0,22.744,18.505,41.25,41.252,41.25
			c22.744,0,41.249-18.506,41.249-41.25C267.647,196.407,249.143,177.903,226.398,177.903z M226.398,240.403
			c-11.718,0-21.252-9.533-21.252-21.25c0-11.719,9.534-21.25,21.252-21.25c11.716,0,21.248,9.531,21.248,21.25
			C247.647,230.869,238.114,240.403,226.398,240.403z"/>
	</g>
</g>
<g>
	<g>
		<path d="M329.819,182.925c-2.83-1.73-5.473-3.338-7.943-4.844c-33.785-20.561-33.785-20.561-54.676-54.855
			c-1.355-2.225-2.793-4.586-4.328-7.096c-3.51-5.904-8.476-10.924-14.367-14.52c-6.663-4.064-14.295-6.213-22.07-6.213
			c-14.939,0-28.497,7.604-36.264,20.334c-1.73,2.832-3.34,5.473-4.844,7.945c-20.561,33.783-20.561,33.783-54.855,54.674
			c-2.225,1.355-4.586,2.793-7.096,4.328c-5.906,3.512-10.924,8.479-14.519,14.367c-12.186,19.977-5.848,46.146,14.121,58.336
			c2.828,1.729,5.469,3.336,7.938,4.84c33.79,20.563,33.79,20.563,54.678,54.854c1.356,2.227,2.796,4.588,4.331,7.102
			c3.514,5.908,8.48,10.928,14.367,14.516c6.662,4.066,14.295,6.215,22.07,6.215c14.936-0.001,28.495-7.605,36.262-20.335
			c1.73-2.83,3.338-5.471,4.842-7.943c20.563-33.785,20.563-33.785,54.852-54.674c2.225-1.355,4.588-2.795,7.1-4.328
			c5.904-3.508,10.924-8.475,14.522-14.369C356.125,221.28,349.79,195.111,329.819,182.925z M326.866,230.842
			c-1.938,3.174-4.527,5.734-7.697,7.607c-0.041,0.025-0.082,0.051-0.123,0.076c-2.525,1.543-4.898,2.988-7.135,4.35
			c-37.721,22.98-38.871,24.127-61.53,61.357c-1.497,2.462-3.099,5.093-4.825,7.917c-4.11,6.736-11.286,10.758-19.195,10.758
			c-4.1,0-8.129-1.137-11.656-3.289c-3.17-1.932-5.73-4.522-7.609-7.697c-0.024-0.039-0.049-0.08-0.073-0.121
			c-1.542-2.523-2.987-4.895-4.349-7.131c-22.98-37.723-24.127-38.873-61.361-61.533c-2.46-1.496-5.089-3.096-7.91-4.82
			c-10.564-6.449-13.916-20.289-7.475-30.852c1.938-3.172,4.529-5.734,7.703-7.615c0.04-0.024,0.079-0.047,0.118-0.072
			c2.521-1.541,4.893-2.984,7.126-4.346c37.728-22.981,38.878-24.129,61.535-61.356c1.498-2.461,3.1-5.094,4.828-7.92
			c4.109-6.736,11.285-10.758,19.195-10.758c4.1,0,8.129,1.137,11.652,3.285c3.174,1.938,5.735,4.529,7.615,7.703
			c0.023,0.039,0.047,0.078,0.071,0.117c1.542,2.523,2.985,4.895,4.347,7.129c22.98,37.727,24.128,38.877,61.357,61.535
			c2.461,1.498,5.092,3.1,7.918,4.826C329.957,206.437,333.309,220.277,326.866,230.842z"/>
	</g>
</g>
<g>
	<g>
		<path d="M393.495,316.507l20.473-35.459c3.994-6.922,5.051-15.004,2.973-22.758c-2.056-7.672-6.927-14.087-13.73-18.09
			c-0.076-0.045-0.152-0.092-0.23-0.137c-4.535-2.617-9.701-4-14.94-4c-10.723,0-20.699,5.74-26.037,14.982l-9.82,17.01
			c-0.016,0.027-0.031,0.055-0.047,0.084l-30.133,52.189c-2.717,4.707-4.057,9.941-4.008,15.209l-44.08,11.809
			c-16.688,4.473-26.648,21.648-22.269,38.34c0.014,0.057,0.027,0.111,0.043,0.166c3.676,13.717,16.177,23.295,30.402,23.295
			c2.727,0,5.451-0.359,8.098-1.068l82.822-22.191c16.738-4.486,26.711-21.758,22.227-38.5c-0.014-0.051-0.027-0.102-0.041-0.152
			c-1.746-6.387-5.424-11.85-10.279-15.873l8.527-14.768C393.462,316.566,393.479,316.536,393.495,316.507z M361.159,292.51
			l11.973,19.27l-7.119,12.33c-0.228-0.008-0.455,0.004-0.682,0c-0.164-0.002-0.325-0.02-0.489-0.02
			c-0.203,0-0.408,0.016-0.611,0.02c-0.33,0.006-0.66,0.016-0.99,0.033c-0.418,0.022-0.836,0.055-1.254,0.094
			c-0.31,0.029-0.623,0.055-0.934,0.092c-0.467,0.059-0.932,0.133-1.395,0.211c-0.258,0.045-0.518,0.078-0.773,0.129
			c-0.721,0.139-1.436,0.301-2.146,0.49l-4.328,1.16l-12.74,3.412L361.159,292.51z M285.016,388.76
			c-0.959,0.256-1.943,0.387-2.924,0.387c-5.156,0-9.688-3.438-11.059-8.375c-0.008-0.033-0.016-0.066-0.025-0.1
			c-1.633-6.092,1.996-12.375,8.086-14.008l21.088-5.648l24.85,17.021L285.016,388.76z M367.835,366.569l-17.365,4.652
			L325.622,354.2l36.295-9.723c0.451-0.121,0.908-0.207,1.367-0.272c0.043-0.008,0.086-0.016,0.129-0.021
			c0.434-0.055,0.867-0.08,1.303-0.086c0.082,0,0.164-0.004,0.246-0.004c0.195,0.002,0.389,0.014,0.582,0.025
			c0.107,0.006,0.215,0.008,0.322,0.018c0.184,0.018,0.365,0.045,0.549,0.07c0.32,0.045,0.639,0.1,0.955,0.172
			c0.035,0.008,0.07,0.014,0.105,0.023c0.256,0.061,0.508,0.129,0.76,0.209c3.688,1.141,6.65,4.09,7.684,7.947
			c0.008,0.031,0.017,0.063,0.025,0.094C377.514,358.715,373.893,364.946,367.835,366.569z M384.471,292.135l-11.971-19.27
			l6.824-11.818c1.775-3.074,5.115-4.984,8.717-4.984c1.707,0,3.324,0.42,4.811,1.248c0.045,0.027,0.09,0.053,0.137,0.08
			c2.293,1.322,3.938,3.48,4.633,6.074c0.695,2.596,0.349,5.289-0.975,7.584L384.471,292.135z"/>
	</g>
</g>
<g>
	<g>
		<path d="M345.96,101.252l-0.391-0.229c-4.76-2.795-10.891-1.205-13.688,3.557c-2.795,4.76-1.211,10.883,3.547,13.682l0.254,0.146
			c1.609,0.965,3.381,1.424,5.129,1.424c3.4,0,6.715-1.734,8.588-4.863C352.237,110.231,350.698,104.09,345.96,101.252z"/>
	</g>
</g>
<g>
	<g>
		<path d="M411.018,166.5c-10.305-17.852-23.504-33.666-39.227-47.004c-4.211-3.572-10.521-3.055-14.096,1.158
			c-3.571,4.212-3.052,10.522,1.159,14.094c13.967,11.848,25.69,25.895,34.844,41.752c1.854,3.207,5.215,5.002,8.67,5.002
			c1.697,0,3.416-0.434,4.99-1.342C412.141,177.398,413.78,171.283,411.018,166.5z"/>
	</g>
</g>
<g>
	<g>
		<path d="M214.925,409.604l-0.391-0.104c-5.33-1.451-10.826,1.689-12.279,7.018c-1.453,5.328,1.688,10.824,7.016,12.277
			l0.358,0.094c0.881,0.24,1.767,0.355,2.638,0.355c4.385,0,8.408-2.906,9.633-7.338
			C223.37,416.582,220.248,411.075,214.925,409.604z"/>
	</g>
</g>
<g>
	<g>
		<path d="M188.036,399.744c-16.563-7.834-31.523-18.369-44.465-31.313c-3.905-3.904-10.237-3.904-14.143,0
			c-3.904,3.906-3.904,10.238,0,14.143c14.57,14.57,31.411,26.43,50.055,35.25c1.381,0.652,2.836,0.961,4.27,0.961
			c3.746,0,7.338-2.113,9.046-5.725C195.161,408.069,193.028,402.106,188.036,399.744z"/>
	</g>
</g>
<g>
</g>
<g>
</g>
<g>
</g>
<g>
</g>
<g>
</g>
<g>
</g>
<g>
</g>
<g>
</g>
<g>
</g>
<g>
</g>
<g>
</g>
<g>
</g>
<g>
</g>
<g>
</g>
<g>
</g>
</svg>
