<?xml version="1.0" encoding="iso-8859-1"?>
<!-- Generator: Adobe Illustrator 18.0.0, SVG Export Plug-In . SVG Version: 6.00 Build 0)  -->
<!DOCTYPE svg PUBLIC "-//W3C//DTD SVG 1.1//EN" "http://www.w3.org/Graphics/SVG/1.1/DTD/svg11.dtd">
<svg version="1.1" id="Capa_1" xmlns="http://www.w3.org/2000/svg" xmlns:xlink="http://www.w3.org/1999/xlink" x="0px" y="0px"
	 viewBox="0 0 297 297" style="enable-background:new 0 0 297 297;" xml:space="preserve">
<g>
	<path d="M21.325,132.315c-5.675,0-10.277,4.601-10.277,10.277c0,27.934,7.617,54.511,22.028,76.856
		c14.123,21.9,34.319,38.374,56.863,46.386c1.105,0.392,2.269,0.593,3.441,0.593h59.368c1.172,0,2.336-0.201,3.441-0.593
		c22.545-8.012,42.74-24.486,56.863-46.386c3.834-5.944,7.171-12.196,10.027-18.685h23.886c18.87,0,34.223-15.353,34.223-34.224
		c0-18.87-15.353-34.223-34.223-34.223H21.325z M260.637,166.539c0,7.538-6.132,13.671-13.67,13.671h-16.718
		c2.333-8.844,3.85-17.99,4.484-27.341h12.234C254.505,152.869,260.637,159.001,260.637,166.539z M214.109,152.869
		c-3.487,42.636-28.42,79.799-63.186,93.004H95.207c-34.766-13.205-59.698-50.368-63.186-93.004H214.109z"/>
	<path d="M275.675,276.447H21.325c-5.675,0-10.277,4.601-10.277,10.277S15.65,297,21.325,297h254.349
		c5.675,0,10.277-4.601,10.277-10.277S281.35,276.447,275.675,276.447z"/>
	<path d="M55.676,119.604c1.99,2.912,5.214,4.479,8.493,4.479c1.997,0,4.016-0.581,5.79-1.793c4.686-3.202,5.888-9.597,2.686-14.283
		c-0.101-0.149-10.053-15.02-1.697-29.543c14.91-25.915-1.64-48.112-2.351-49.044c-3.445-4.51-9.893-5.373-14.405-1.931
		c-4.51,3.445-5.375,9.894-1.931,14.405c0.091,0.119,9.039,12.125,0.872,26.319C38.41,93.8,54.964,118.562,55.676,119.604z"/>
	<path d="M116.704,117.123c1.848,3.472,5.404,5.451,9.081,5.451c1.628,0,3.28-0.388,4.818-1.206c5.01-2.666,6.911-8.889,4.245-13.9
		c-0.117-0.222-11.696-22.433-2.407-43.925c13.282-30.735-2.144-57.383-2.807-58.503c-2.893-4.882-9.194-6.497-14.08-3.603
		c-4.882,2.893-6.496,9.197-3.603,14.08c0.109,0.184,10.797,18.647,1.623,39.873C100.408,85.857,116.033,115.86,116.704,117.123z"/>
	<path d="M178.988,118.095c1.99,2.912,5.214,4.479,8.493,4.479c1.997,0,4.016-0.581,5.79-1.793
		c4.686-3.202,5.888-9.597,2.686-14.283c-0.101-0.149-10.053-15.02-1.697-29.543c14.91-25.915-1.64-48.112-2.351-49.044
		c-3.445-4.51-9.893-5.373-14.405-1.931c-4.51,3.445-5.375,9.894-1.931,14.405c0.091,0.119,9.039,12.125,0.872,26.319
		C161.722,92.291,178.275,117.054,178.988,118.095z"/>
</g>
<g>
</g>
<g>
</g>
<g>
</g>
<g>
</g>
<g>
</g>
<g>
</g>
<g>
</g>
<g>
</g>
<g>
</g>
<g>
</g>
<g>
</g>
<g>
</g>
<g>
</g>
<g>
</g>
<g>
</g>
</svg>
