<?xml version="1.0" encoding="iso-8859-1"?>
<!-- Generator: Adobe Illustrator 18.0.0, SVG Export Plug-In . SVG Version: 6.00 Build 0)  -->
<!DOCTYPE svg PUBLIC "-//W3C//DTD SVG 1.1//EN" "http://www.w3.org/Graphics/SVG/1.1/DTD/svg11.dtd">
<svg version="1.1" id="Capa_1" xmlns="http://www.w3.org/2000/svg" xmlns:xlink="http://www.w3.org/1999/xlink" x="0px" y="0px"
	 viewBox="0 0 206.869 206.869" style="enable-background:new 0 0 206.869 206.869;" xml:space="preserve">
<path d="M155.282,83.974c-3.194-22.256-20.424-40.028-42.407-44.047L120.7,9.362c1.027-4.013-1.393-8.099-5.405-9.126
	c-4.014-1.027-8.099,1.392-9.126,5.405l-8.644,33.759c-23.65,2.669-42.575,21.138-45.938,44.573
	c-3.886,0.281-6.954,3.515-6.954,7.473v23.603c0,4.142,3.358,7.5,7.5,7.5h3.337l9.215,77.704c0.447,3.774,3.647,6.617,7.448,6.617
	h62.602c3.8,0,7-2.843,7.448-6.617l9.215-77.704h3.337c4.142,0,7.5-3.358,7.5-7.5V91.446
	C162.235,87.489,159.167,84.255,155.282,83.974z M59.634,107.549v-8.603h87.602v8.603h-2.5H62.134H59.634z M103.416,54.059
	c0.008,0,0.016,0.001,0.024,0.001c0.005,0,0.011-0.001,0.017-0.001c18.038,0.011,33.129,12.86,36.61,29.887H66.802
	C70.284,66.918,85.376,54.068,103.416,54.059z M128.072,191.869H78.797l-8.221-69.32h65.718L128.072,191.869z"/>
<g>
</g>
<g>
</g>
<g>
</g>
<g>
</g>
<g>
</g>
<g>
</g>
<g>
</g>
<g>
</g>
<g>
</g>
<g>
</g>
<g>
</g>
<g>
</g>
<g>
</g>
<g>
</g>
<g>
</g>
</svg>
