<?xml version="1.0" encoding="iso-8859-1"?>
<!-- Generator: Adobe Illustrator 19.0.0, SVG Export Plug-In . SVG Version: 6.00 Build 0)  -->
<svg version="1.1" id="Capa_1" xmlns="http://www.w3.org/2000/svg" xmlns:xlink="http://www.w3.org/1999/xlink" x="0px" y="0px"
	 viewBox="0 0 511.995 511.995" style="enable-background:new 0 0 511.995 511.995;" xml:space="preserve">
<g>
	<g>
		<path d="M464.529,47.467c-63.287-63.279-166.271-63.279-229.558,0c-29.489,29.48-45.808,73.589-44.758,121.582
			c0.051,0.623,4.839,63.313-45.867,114.028c-13.323,13.315-13.323,34.994,0,48.317c6.965,6.956,16.558,10.472,26.322,9.943
			c-0.589,9.448,2.723,19.101,9.926,26.305c6.657,6.657,15.406,9.986,24.154,9.986s17.505-3.329,24.171-9.977
			c50.715-50.715,113.414-45.936,114.609-45.833c47.506,0.819,91.53-15.312,121.001-44.792
			C527.817,213.728,527.817,110.762,464.529,47.467z M452.452,264.947c-26.203,26.203-65.873,40.78-107.977,39.825
			c-2.885-0.247-71.088-5.753-127.633,50.801c-6.666,6.649-17.514,6.649-24.18,0c-6.666-6.666-6.666-17.514,0-24.18
			c1.664-1.664,2.501-3.841,2.501-6.026s-0.836-4.37-2.501-6.034c-3.329-3.337-8.731-3.337-12.069,0
			c-6.461,6.461-17.719,6.452-24.18,0c-6.666-6.666-6.666-17.514,0-24.18c56.545-56.553,51.057-124.757,50.826-127.044
			c-0.922-42.795,13.579-82.372,39.79-108.574c56.639-56.63,148.791-56.63,205.421,0
			C509.08,116.165,509.082,208.317,452.452,264.947z"/>
	</g>
</g>
<g>
	<g>
		<path d="M277.236,77.647c-3.337-3.329-8.74-3.303-12.069,0.026c-26.237,26.348-30.53,61.922-32.681,96.113
			c-0.299,4.703,3.277,8.757,7.98,9.056c0.188,0.009,0.367,0.017,0.546,0.017c4.464,0,8.219-3.474,8.509-8.006
			c1.955-30.94,5.693-62.997,27.739-85.129C280.591,86.377,280.574,80.975,277.236,77.647z"/>
	</g>
</g>
<g>
	<g>
		<path d="M231.702,226.66c-4.447-1.519-9.312,0.845-10.848,5.292c-1.562,4.541-2.765,9.107-3.943,13.648
			c-1.98,7.605-3.849,14.8-7.485,21.15c-2.339,4.088-0.913,9.312,3.175,11.642c1.331,0.768,2.791,1.127,4.225,1.127
			c2.962,0,5.846-1.545,7.434-4.302c4.754-8.33,6.999-16.959,9.175-25.315c1.067-4.122,2.142-8.279,3.559-12.393
			C238.53,233.043,236.157,228.196,231.702,226.66z"/>
	</g>
</g>
<g>
	<g>
		<path d="M455.858,196.692c-4.327-1.869-9.354,0.111-11.232,4.43c-16.251,37.418-52.627,61.341-93.015,61.341
			c-0.572,0-1.144-0.009-1.716-0.017c-5.027,0.213-8.603,3.67-8.68,8.39c-0.077,4.711,3.679,8.595,8.39,8.68
			c0.666,0.009,1.34,0.017,2.006,0.017c47.199,0,89.695-27.927,108.677-71.618C462.165,203.598,460.185,198.571,455.858,196.692z"/>
	</g>
</g>
<g>
	<g>
		<path d="M434.307,77.671c-3.329-3.337-8.74-3.337-12.069,0c-3.329,3.329-3.329,8.731,0,12.069
			c17.096,17.104,27.713,40.251,27.713,60.42c0,4.72,3.824,8.535,8.535,8.535s8.535-3.815,8.526-8.535
			C467.013,125.631,454.483,97.858,434.307,77.671z"/>
	</g>
</g>
<g>
	<g>
		<path d="M93.861,443.739l-34.089-0.051h-0.009c-4.711,0-8.526,3.807-8.535,8.518c0,4.72,3.815,8.544,8.526,8.552l34.089,0.051
			h0.009c4.703,0,8.526-3.807,8.535-8.518C102.387,447.572,98.572,443.749,93.861,443.739z"/>
	</g>
</g>
<g>
	<g>
		<path d="M202.205,365.09c-0.478-2.731-2.245-5.061-4.745-6.256c-1.963-0.939-3.534-2.006-4.788-3.252
			c-6.666-6.666-6.666-17.514,0-24.18c1.664-1.664,2.501-3.849,2.501-6.034s-0.836-4.37-2.501-6.034
			c-3.329-3.337-8.731-3.337-12.069,0c-6.461,6.444-17.727,6.435-24.171,0.009c-1.272-1.28-2.339-2.842-3.269-4.797
			c-1.195-2.509-3.525-4.276-6.256-4.745c-2.748-0.487-5.531,0.41-7.485,2.373l-43.836,43.836
			c-23.403-17.522-56.835-15.645-78.104,5.599c-23.309,23.309-23.309,61.256,0,84.565c9.465,9.465,22.985,12.726,34.354,13.98
			c1.246,11.369,4.506,24.888,13.972,34.354c11.659,11.65,26.971,17.48,42.283,17.48c15.312,0,30.632-5.821,42.291-17.471
			c21.269-21.261,23.13-54.701,5.607-78.096l43.836-43.844C201.787,370.611,202.674,367.82,202.205,365.09z M138.311,409.94
			c-3.337,3.337-3.337,8.731,0,12.069c16.66,16.66,16.66,43.768,0,60.428c-16.66,16.652-43.768,16.652-60.428,0
			c-7.511-7.519-9.073-21.116-9.593-30.683c-0.239-4.336-3.713-7.818-8.057-8.049c-9.576-0.529-23.173-2.091-30.683-9.602
			c-16.66-16.66-16.66-43.768,0-60.428c8.33-8.33,19.272-12.487,30.214-12.487c10.933,0,21.884,4.165,30.214,12.487
			c3.337,3.337,8.731,3.337,12.069,0l42.3-42.291c0.009,0,0.009,0.009,0.009,0.009c6.965,6.965,16.609,10.541,26.322,9.943
			c-0.589,9.448,2.723,19.101,9.926,26.314L138.311,409.94z"/>
	</g>
</g>
<g>
	<g>
		<path d="M68.247,418.117c-0.009-4.711-3.824-8.518-8.535-8.518h-0.009c-4.72,0.008-8.535,3.832-8.526,8.552l0.051,34.089
			c0.009,4.711,3.824,8.518,8.535,8.518h0.009c4.72-0.009,8.535-3.832,8.526-8.552L68.247,418.117z"/>
	</g>
</g>
<g>
</g>
<g>
</g>
<g>
</g>
<g>
</g>
<g>
</g>
<g>
</g>
<g>
</g>
<g>
</g>
<g>
</g>
<g>
</g>
<g>
</g>
<g>
</g>
<g>
</g>
<g>
</g>
<g>
</g>
</svg>
